<?xml version="1.0" encoding="UTF-8"?>
<svg id="Layer_1" data-name="Layer 1" xmlns="http://www.w3.org/2000/svg" viewBox="0 0 171 121">
  <defs>
    <style>
      .cls-1 {
        fill: #fff;
      }

      .cls-2 {
        fill: #cb5828;
      }
    </style>
  </defs>
  <path class="cls-2" d="M126.47,116.69l-80.06.06c-20.86-2.17-38.48-17.62-40.7-38.74-.93-8.84-.95-17.96,0-26.79C7.98,30.08,25.52,14.67,46.42,12.48l79.51.03c22.05,2.59,38.78,18.76,40.84,40.86v22.47c-2.05,21.76-18.19,37.88-40.31,40.85h0ZM92.71,104.25l1.29-.17,32.83.03c.17-4.64,1.39-10.89-.36-15.33-1.24-3.14.41-3.59.42-5.94l.38-62.83-40.5-.05c-.41.34-.88.34-1.28.11l-38.18-.07v84.19l45.41.05h-.01Z"/>
  <path class="cls-1" d="M94,104.09l-1.29.17c-9.84-12.7-22.63-22.94-37.31-29.59,6.31-8.72,11.42-17.2,16.2-26.45.24-7.13,2.55-13.25,6.78-18.82l7.11-9.31c.39.23.86.23,1.28-.11l1.59,13.66c2.82-4.14,4.96-7.79,8.66-10.94l-.24,14.54c6.4,1.81,10.65,5.75,12.81,11.43l16.63,4.79c.29,6.34-3.17,12.72-9.03,15.56-5.01,2.43-15.74-1.12-19.12,4.85-4.65,8.19-1.69,19.74-4.06,30.23h-.01Z"/>
  <path class="cls-2" d="M85.48,20.08l-7.11,9.31c-4.22,5.57-6.54,11.69-6.78,18.82-4.78,9.26-9.88,17.74-16.2,26.45,14.68,6.65,27.47,16.89,37.31,29.59l-45.4-.05V20.01l38.17.07h0Z"/>
  <path class="cls-2" d="M50,22.2c-2.84,3.83-5.74,7.62-8.52,11.5s-5.01,7.71-6.37,12.14-1.81,9.06-2.05,13.64c-.26,4.86-.38,9.74-.37,14.61,0,5.6.26,11.21.95,16.77.17,1.34,1.03,2.5,2.5,2.5,1.36,0,2.49-1.14,2.5-2.5.06-11.33.12-22.66.17-33.99l-3.76,2.16c1.18.76,1.43,2.56,1.64,3.84.35,2.21.36,4.47.36,6.7,0,4.63-.18,9.25-.29,13.88-.21,8.24.97,17.22,8.27,22.28,1.65,1.14,3.83,2.12,5.86,2.19,1.48.05,2.87-.92,3-2.45s-1.04-3.08-2.7-2.96c-1.35.09-2.5,1.08-2.5,2.5,0,1.28,1.15,2.59,2.5,2.5h.14c-.72-.42-1.44-.84-2.16-1.25l.1.14-.25-1.93-.03.17,1.15-1.49-.23.12,1.26-.34c-2.41-.07-4.92-2.29-6.28-4.22-1.91-2.71-2.76-5.94-3.03-9.22-.65-7.96.57-15.99.09-23.96-.24-3.95-.76-8.47-4.37-10.81-1.62-1.05-3.75.33-3.76,2.16-.06,11.33-.12,22.66-.17,33.99h5c-1.18-9.5-1.06-19.1-.7-28.65.17-4.47.42-8.95,1.51-13.3s3.09-8,5.58-11.6c2.97-4.28,6.18-8.4,9.28-12.58.81-1.08.18-2.79-.9-3.42-1.27-.75-2.61-.19-3.42.9h0v-.02Z"/>
  <path class="cls-2" d="M122.68,85.42c1.04,5.18,1.25,10.46.74,15.72l4.91-.66c-1.47-7.75-1.29-15.76.48-23.44l-3.08,1.75c.37.1.46.29.67.83.33.83.38,1.67.43,2.55.14,2.46.02,4.94-.31,7.38-.69,5.06-2.18,9.98-3.63,14.86h4.82c-.79-5.65-.49-11.39.57-16.98s2.7-11.08,4.06-16.62,1.92-10.71,1.42-16.2-1.75-10.79-3.13-16.08c-1.52-5.84-3.22-11.7-4-17.7l-2.5,2.5c1.33.05,2.5,2.12,3.15,3.11.97,1.47,1.79,3.04,2.39,4.69,1.25,3.49,1.64,7.12,1.21,10.8l4.66-1.26c-3.53-5.41-6.53-11.16-8.86-17.18l-4.18,2.43c1.15,1.09,1.54,2.5,1.83,4.02.37,1.99.52,4.02.8,6.02.63,4.48,1.55,8.91,2.71,13.29l4.57-1.93c-1.56-3.24-2.27-6.83-2.8-10.37-.55-3.73-.96-7.49-1.43-11.23-.17-1.34-1.03-2.5-2.5-2.5-1.22,0-2.67,1.15-2.5,2.5,1.01,8.07,1.33,16.68,4.91,24.12,1.25,2.6,5.28.75,4.57-1.93-1.22-4.61-2.19-9.3-2.81-14.04-.53-4.05-.64-8.49-3.81-11.5-1.67-1.59-5.13-.03-4.18,2.43,2.49,6.44,5.6,12.59,9.37,18.38,1.44,2.21,4.38,1.15,4.66-1.26.55-4.67-.21-9.43-2.04-13.76-1.7-4.02-4.79-9.64-9.71-9.84-1.23-.05-2.67,1.19-2.5,2.5,1.41,10.86,5.56,21.15,6.94,32.01.7,5.49.35,10.81-.94,16.18s-2.99,11.01-4.08,16.61c-1.31,6.69-1.61,13.34-.66,20.1.15,1.07,1.42,1.84,2.41,1.84,1.11,0,2.1-.78,2.41-1.84,1.74-5.87,3.43-11.77,3.99-17.88.41-4.47.94-12.34-4.65-13.88-1.26-.35-2.77.43-3.08,1.75-1.98,8.6-2.12,17.44-.48,26.1.23,1.21,1.61,1.96,2.74,1.79,1.3-.2,2.04-1.18,2.17-2.46.56-5.71.21-11.43-.92-17.05-.27-1.32-1.84-2.09-3.08-1.75-1.38.38-2.01,1.75-1.75,3.08h.02Z"/>
  <path class="cls-2" d="M85.99,13.21c-7.51-1.09-13.72,3.09-19.38,7.49s-10.99,8.71-14.13,15.02-4.15,13.26-7.24,19.51c-1.66,3.36-3.5,6.7-4.35,10.38s-.86,7.44-.74,11.17c.23,7.54,1.26,15.5,5.78,21.78,1.87,2.6,5.74.4,4.32-2.52-4.26-8.78-8.52-17.57-12.77-26.35l-3.93,3.03c3.28,4.04,4.22,9.49,5.61,14.36s3.33,9.89,6.47,14c3.4,4.47,7.96,7.32,13.37,8.77,2.74.74,5.55,1.16,8.35,1.62,3.21.52,6.43,1.02,9.66,1.39,6.35.72,12.61.61,18.92-.37s12.09-2.59,18.04-4.27c2.86-.81,5.83-1.56,7.97-3.77,1.94-2.01,3.15-4.69,4.25-7.21,2.31-5.3,3.9-10.88,6.19-16.18,1.28-2.97,2.88-5.71,4.63-8.42s3.44-5.56,4.42-8.72c1.95-6.34,1.33-13.09.38-19.54-.2-1.34-1.89-2.07-3.08-1.75-1.43.39-1.95,1.73-1.75,3.08.77,5.2,1.25,10.69-.08,15.84s-5.13,9.4-7.55,14.21-4.09,10.16-6.01,15.28c-.92,2.46-1.92,4.89-3.16,7.21s-2.49,3.63-4.96,4.4c-11.22,3.53-22.96,6.42-34.79,5.53-5.75-.43-11.54-1.35-17.19-2.48-4.9-.98-9.36-2.67-12.73-6.49-7.55-8.57-6.32-21.27-13.43-30.03-.77-.95-2.4-.9-3.28-.2-1.02.81-1.2,2.07-.64,3.23,4.26,8.78,8.52,17.57,12.77,26.35l4.32-2.52c-3.58-4.96-4.67-11.01-5.01-17-.18-3.31-.33-6.73.09-10.03s1.74-6.31,3.23-9.28,2.87-5.9,3.92-9.03,1.89-6.38,3.04-9.5c1.03-2.78,2.43-5.45,4.34-7.73,2.06-2.47,4.49-4.61,6.98-6.63,2.69-2.18,5.42-4.38,8.39-6.16,2.79-1.68,6.09-3.14,9.43-2.65,1.33.19,2.69-.33,3.08-1.75.32-1.17-.4-2.88-1.75-3.08h0Z"/>
  <path class="cls-2" d="M94,104.09c2.37-10.49-.59-22.04,4.06-30.23,3.39-5.96,14.11-2.42,19.12-4.85,5.85-2.84,9.31-9.22,9.03-15.56l-16.63-4.79c-2.16-5.68-6.41-9.61-12.81-11.43l.24-14.54c-3.7,3.15-5.84,6.8-8.66,10.94l-1.59-13.66,40.5.05-.38,62.83c-.01,2.34-1.66,2.8-.42,5.94,1.75,4.44.53,10.69.36,15.33l-32.83-.03h.01Z"/>
</svg>